<svg xmlns="http://www.w3.org/2000/svg" xmlns:xlink="http://www.w3.org/1999/xlink" viewBox="0,0,256,256" width="96px" height="96px"><g fill="#38197b" fill-rule="nonzero" stroke="none" stroke-width="1" stroke-linecap="butt" stroke-linejoin="miter" stroke-miterlimit="10" stroke-dasharray="" stroke-dashoffset="0" font-family="none" font-weight="none" font-size="none" text-anchor="none" style="mix-blend-mode: normal"><g transform="scale(10.66667,10.66667)"><path d="M14.5,2c-4.142,0 -7.5,3.358 -7.5,7.5c0,4.142 3.358,7.5 7.5,7.5c4.142,0 7.5,-3.358 7.5,-7.5c0,-4.142 -3.358,-7.5 -7.5,-7.5zM17,9c-1.105,0 -2,-0.895 -2,-2c0,-1.105 0.895,-2 2,-2c1.105,0 2,0.895 2,2c0,1.105 -0.895,2 -2,2z" opacity="0.35"></path><path d="M7.587,12.413l-5.294,5.294c-0.188,0.188 -0.293,0.442 -0.293,0.707v2.586c0,0.552 0.448,1 1,1h2.586c0.265,0 0.52,-0.105 0.707,-0.293l1.293,-1.293c0.265,-0.265 0.414,-0.625 0.414,-1c0,-0.781 0.633,-1.414 1.414,-1.414c0.375,0 0.735,-0.149 1,-0.414l1.173,-1.173c-1.8,-0.759 -3.241,-2.201 -4,-4z"></path></g></g></svg>