<svg xmlns="http://www.w3.org/2000/svg" xmlns:xlink="http://www.w3.org/1999/xlink" id="Calque_1" data-name="Calque 1" viewBox="0 0 304 304"><defs><style>.cls-1{fill:url(#radial-gradient);}.cls-2{fill:#317622;}.cls-3{fill:#adc39b;}.cls-3,.cls-6{fill-rule:evenodd;}.cls-4{fill:#fff;}.cls-5,.cls-6{fill:none;stroke:#000;stroke-linecap:round;stroke-linejoin:round;stroke-width:0.29px;}.cls-7{fill:#1d1d1b;}</style><radialGradient id="radial-gradient" cx="136.32" cy="130.08" r="170.83" gradientUnits="userSpaceOnUse"><stop offset="0.72" stop-color="#fff"/><stop offset="0.79" stop-color="#fcfcfc"/><stop offset="0.83" stop-color="#f3f3f3"/><stop offset="0.88" stop-color="#e3e3e3"/><stop offset="0.92" stop-color="#ccc"/><stop offset="0.95" stop-color="#afafaf"/><stop offset="0.99" stop-color="#8b8b8b"/><stop offset="1" stop-color="gray"/></radialGradient></defs><circle class="cls-1" cx="152" cy="152" r="152"/><path class="cls-2" d="M167.64,50.27a20.4,20.4,0,0,1-2.1,8.42c-1.28,2.39-2,4.34-3.2,5.27a9.14,9.14,0,0,0-2.51,1.39,4.89,4.89,0,0,0-1.27,3,28.39,28.39,0,0,0,.07,7.12,29,29,0,0,0,1.87,7c.86,1.84,2,3.86,2,3.86A22.69,22.69,0,0,0,170,78.23a52.48,52.48,0,0,0,2.69-6c.46-1,1.05-2.54.76-3.32a14.24,14.24,0,0,1-1.34-3.71,64.26,64.26,0,0,1,0-9.47c.1-1.2,0-7.73-1.17-10.42,0,0-1.54-4.52-4.33-7.13a20.94,20.94,0,0,0-9.71-4.8A17,17,0,0,1,161,36.17a18.82,18.82,0,0,1,5,6.61"/><path class="cls-3" d="M157.18,184a26.77,26.77,0,0,1-10.2-.43c.2,3.89.39,7.57.55,10.83,2.36.91,5.56,2,8.87,3.09C156.62,193.65,156.89,189,157.18,184Z"/><path class="cls-3" d="M184,217.66a29.6,29.6,0,0,1-7.73-2.22c-3.15-1.4-8.28-4.58-12.63-6.2a45.82,45.82,0,0,0-7.84-1.87s.06-1.09.17-3l-8.07-1.55c.14,2.86.22,4.55.22,4.55a45.82,45.82,0,0,0-7.84,1.87c-4.35,1.62-9.47,4.8-12.64,6.2a29.44,29.44,0,0,1-7.72,2.22s-4,.21-4.79.15v2.78h73.67v-2.78C188,217.87,184,217.66,184,217.66Z"/><path class="cls-3" d="M73.69,102.12v3.67s7.53.38,12.69,2.93,15.86,10.4,19.06,12.74a66.55,66.55,0,0,0,13.28,8.71,88.85,88.85,0,0,0,15.85,5.91,47.73,47.73,0,0,0,9.63,1.55c.27.76.89,10.63,1.56,22.71.16,2.83.32,5.79.48,8.78a3,3,0,0,0,.36.17,16.7,16.7,0,0,0,8.23,1.33,24.07,24.07,0,0,0,3.17-.31c.1-1.62.2-3.24.29-4.83.19-3,.38-6,.56-8.75.67-10.38,1.25-18.42,1.5-19.1a77.85,77.85,0,0,0,9.08-1.55c3.35-.73,8.23-2.19,15.85-5.91a66.55,66.55,0,0,0,13.28-8.71c3.2-2.34,13.9-10.19,19.06-12.74s12.69-2.93,12.69-2.93v-3.67Z"/><path class="cls-2" d="M177.18,209.24a17.81,17.81,0,0,0-5.38-5.62c-2-1.22-2.31-2-8.83-4-2.08-.67-4.35-1.39-6.57-2.12-3.31-1.09-6.51-2.18-8.87-3.09-1-.39-1.89-.75-2.53-1-3.11-1.49-4.92-5.84-4.79-9.25a5,5,0,0,1,.75-2.28,34.13,34.13,0,0,0,3.81,1.23l2.21.52a26.77,26.77,0,0,0,10.2.43c.88-.12,1.8-.28,2.8-.48a24.89,24.89,0,0,0,12.29-6.09,12.36,12.36,0,0,0,4.09-8c.37-4-1.33-6.37-3-8.45s-6.33-3.92-9.68-4.1a40,40,0,0,0-4.79-.08c-.18,2.78-.37,5.72-.56,8.75a9,9,0,0,1,2,.11c1.15.13,2.29,1,2,1.88s-.6,2.21-4.32,2.84a24.07,24.07,0,0,1-3.17.31,16.7,16.7,0,0,1-8.23-1.33,3,3,0,0,1-.36-.17c-.16-3-.32-6-.48-8.78-.59.27-1.12.55-1.58.81a25.43,25.43,0,0,0-3.85,2.73,12.07,12.07,0,0,1-1-1.77c-.88-1.62.37-4.05,1.42-5.29s4.63-2.45,4.63-2.45l-.86-12.56a34.58,34.58,0,0,0-6.69,2.49,26.62,26.62,0,0,0-8.08,6.32,20.52,20.52,0,0,0-4.24,12c-.24,5.18,3,10.87,4.94,13.12a7.22,7.22,0,0,0,.68.66c-.49,1.35-3.16,8.27-1,13.5,3.15,7.71,7.23,8.85,11.59,10.89a34.16,34.16,0,0,0,6.21,2c2.55.61,5.35,1.12,8.07,1.55,1.51.24,3,.46,4.4.65A45,45,0,0,1,175,209.71c3.11,1.63,2,1.81,2.34,1.87S177.73,210.58,177.18,209.24Z"/><path class="cls-2" d="M159.27,150.15l1.06-13.57a7.17,7.17,0,0,0,3.22-2.23,9.19,9.19,0,0,0,2.4-6.43c-.12-2.69-.19-5.18-1.88-7.84a42.53,42.53,0,0,0-7.25-9.49c-4.61-4.74-10.67-10.84-13.45-13.92S135.32,87.42,133,82.28c-3.44-7.45-5.2-13.79-3.16-23.24,2-9,3.39-11.21,4.92-13.89,1.79-3.14,3-3.91,4.77-5.92a19,19,0,0,1,4.42-3.47s-1.92,2.17-2.52,3.11a36.11,36.11,0,0,0-3.28,5,45.34,45.34,0,0,0-3.4,10.45,38.79,38.79,0,0,0,.05,11.83A39.78,39.78,0,0,0,137,74a59.78,59.78,0,0,0,8.4,12.28c4.63,5.35,6.81,8,9.25,10.29s10,10.64,12.4,13.46c4.5,5.17,6.88,9.56,7.49,12.12a26.52,26.52,0,0,1,.82,7A23,23,0,0,1,167,146.17,18.16,18.16,0,0,1,159.27,150.15Z"/><path class="cls-2" d="M163.46,61s2.25-2.57,3.07-8.09a12.92,12.92,0,0,0,0-5.93,14.15,14.15,0,0,0-2.07-5.24,18.09,18.09,0,0,0-5.68-6.27c-3.05-2-5.52-2.61-8.93-1.87a13.24,13.24,0,0,0-7.1,4.45,30.09,30.09,0,0,0-6.32,12.75c-1.15,4.91-2.11,10.29-.37,16.9a32,32,0,0,0,3.53,9,67.64,67.64,0,0,0,7.37,10c3.16,3.62,9.45,9.68,11.59,12s4.56,4.56,7,7.49,5.49,6.23,7.84,10.77c2.75,5.33,3.18,8.85,2.69,12.17-.66,4.43-1,6.5-2.46,9.36-1.21,2.32-2.95,4.88-2.95,4.88s4.36-4.11,5.53-6.33,3.4-5.61,3.72-10.24A22.57,22.57,0,0,0,178,114.69c-2.56-6.16-5.64-9.36-8.79-13.11s-5.38-6.45-8.9-9.94-10.7-11.22-14-15.92-5.71-12.25-5.75-16.37c0-3.43,1.05-9.82,3.88-13.46s5.08-5.18,8.74-5.08c2.7.07,3.73.32,6.82,3a14.09,14.09,0,0,1,3.74,6.79c.51,3.51.69,4.24.52,6.38A20.32,20.32,0,0,1,163.46,61Z"/><path class="cls-4" d="M162.32,157.75a10,10,0,0,1,3.86,1.76,4.11,4.11,0,0,1,2,3.33,5.88,5.88,0,0,1-1.23,3.81c-1.24,1.55-4.22,3.67-4.4,3.28,0,0,3-2.28,3.72-3.56a7,7,0,0,0,.81-3.41c.07-1.18-1.2-2.76-1.53-3.1A16.92,16.92,0,0,0,162.32,157.75Z"/><path class="cls-4" d="M156.94,171.33a38.36,38.36,0,0,1-6.41,1.06,22,22,0,0,1-9.27-1.65,15.46,15.46,0,0,1-7.84-7.49c-1.65-3.77-.87-8.12.35-11.35a15.87,15.87,0,0,1,5.5-6.78,17.82,17.82,0,0,1,2.92-1.87,26.8,26.8,0,0,0-3.62,3c-1.31,1.43-5.15,6.08-4.93,10.94.25,5.31,2.09,8.09,3.06,9,2.1,1.87,5,3.85,6.78,4.33a29.83,29.83,0,0,0,5.85,1.17A65.73,65.73,0,0,0,156.94,171.33Z"/><path class="cls-4" d="M136.58,179.84l1.22.49a13.31,13.31,0,0,0-.67,3.17,11.82,11.82,0,0,0,.67,4.63,15.25,15.25,0,0,0,1.94,3.32,10.4,10.4,0,0,0,2.81,2.58c1.34,1,3.66,1.55,3.78,1.82s-3.6-.59-5.12-1.69a11.57,11.57,0,0,1-5-7.22,10.71,10.71,0,0,1-.12-5C136.44,180.42,136.58,179.84,136.58,179.84Z"/><path class="cls-4" d="M150.5,33.48c2.5-.3,6.44.47,8.31,2a25,25,0,0,1,5.68,6.27A14.15,14.15,0,0,1,166.56,47a12.92,12.92,0,0,1,0,5.93c-.82,5.52-3.07,8.09-3.07,8.09l-1.11,2.5c1-.93,1.64-1.67,3.25-4.62a20.1,20.1,0,0,0,2.1-8.43A15.93,15.93,0,0,0,166.06,43a19.08,19.08,0,0,0-4.86-6.71,11,11,0,0,0-4.26-2.65,15.5,15.5,0,0,0-7.32-.27A16.32,16.32,0,0,0,144,36a14.42,14.42,0,0,0-3.18,3.29,26.68,26.68,0,0,0-3.1,4.81,46.11,46.11,0,0,0-3,10.3c-.61,3.84-.78,8.62-.19,11.4A43.43,43.43,0,0,0,137,74a54.12,54.12,0,0,0,8,12.15,127.23,127.23,0,0,0,9.61,10.42c2.44,2.26,10,10.64,12.4,13.46,4.5,5.17,6.88,9.56,7.49,12.12a26.52,26.52,0,0,1,.82,7,21.33,21.33,0,0,1-2.11,9c-.78,1.48-2.61,4.94-4.71,6.84a23,23,0,0,0,2.23-1.61c.87-.7,1.39-1.65,2.95-4.64a20.37,20.37,0,0,0,2.52-8.14,23.75,23.75,0,0,0-2.75-13.63c-2.35-4.54-5.39-7.85-7.84-10.77s-4.89-5.13-7-7.49-8.43-8.43-11.59-12a67.64,67.64,0,0,1-7.37-10,32,32,0,0,1-3.53-9c-1.74-6.61-.78-12,.37-16.9a29.75,29.75,0,0,1,6.32-12.75A12.2,12.2,0,0,1,150.5,33.48Z"/><path class="cls-5" d="M141,181.8a5,5,0,0,0-.75,2.28c-.13,3.41,1.68,7.76,4.79,9.25.64.3,1.51.66,2.53,1-.16-3.26-.35-6.94-.55-10.83l-2.21-.52A34.13,34.13,0,0,1,141,181.8Z"/><path class="cls-6" d="M140.33,163.88a12.07,12.07,0,0,1-1-1.77c-.88-1.62-.11-4,1.42-5.29a25,25,0,0,1,4.63-2.45l.3,6s-1.08.49-1.54.75A25.43,25.43,0,0,0,140.33,163.88Z"/><path class="cls-6" d="M158,170.31c3.72-.63,4.1-1.62,4.32-2.84.17-.93-.84-1.75-2-1.88a9,9,0,0,0-2-.11C158.2,167.07,158.1,168.69,158,170.31Z"/><path class="cls-5" d="M156,204.37c1.51.24,3,.46,4.4.65A45.25,45.25,0,0,1,175,209.71c2.2,1.14,2.34,1.87,2.34,1.87a3.21,3.21,0,0,0-.12-2.34,17.81,17.81,0,0,0-5.38-5.62c-2-1.22-2.31-2-8.83-4-2.08-.67-4.35-1.39-6.57-2.12.22-3.82.49-8.48.78-13.49.88-.12,1.8-.28,2.8-.48a24.89,24.89,0,0,0,12.29-6.09,12.36,12.36,0,0,0,4.09-8c.37-4-1.33-6.37-3-8.45s-6.33-3.92-9.68-4.1c-2-.11-4.79-.08-4.79-.08l.42-6.58a21,21,0,0,0,8.34-4.26c4-3.16,4.74-3.83,6.88-6.33a31.66,31.66,0,0,0,3.84-6.25c1.93-.78,4.48-1.93,6.95-3.14a66.55,66.55,0,0,0,13.28-8.71c3.2-2.34,13.9-10.19,19.06-12.74s12.69-2.93,12.69-2.93v-3.67l-60.6-.11c-3.16-3.74-5.86-6.88-9.38-10.37s-10.7-11.22-14-15.92-5.71-12.25-5.75-16.37c0-3.43,1.05-9.82,3.88-13.46s5.08-5.18,8.74-5.08c2.7.07,3.73.32,6.82,3a14.09,14.09,0,0,1,3.74,6.79c.51,3.51.69,4.24.52,6.38a20.32,20.32,0,0,1-.78,4s-.63,2.6-1.61,3-2.57,1.29-2.57,1.76a7.45,7.45,0,0,0-.66,2.71,28.39,28.39,0,0,0,.07,7.12,29,29,0,0,0,1.87,7c.86,1.85,2,3.86,2,3.86A22.62,22.62,0,0,0,170,78.42a52.41,52.41,0,0,0,2.69-6c.46-1,1.05-2.53.76-3.32a14.28,14.28,0,0,1-1.34-3.7,65.83,65.83,0,0,1,0-9.48c.1-1.2,0-7.73-1.17-10.41,0,0-1.54-4.53-4.33-7.14a20.57,20.57,0,0,0-15.06-5.48c-5.55.25-10.7,4.91-10.7,4.91a27.26,27.26,0,0,0-6.18,7.32c-1.53,2.68-3,4.57-5,13.59-2,9.44-.22,16.09,3.22,23.54,2.37,5.14,7.63,11.31,10.42,14.39,1.2,1.33,3,3.24,5.08,5.35l-74.76.1v3.67s7.53.38,12.69,2.93,15.86,10.4,19.06,12.74a66.55,66.55,0,0,0,13.28,8.71,88.85,88.85,0,0,0,15.85,5.91,47.73,47.73,0,0,0,9.63,1.55,28.27,28.27,0,0,1,.36,4.18,34.58,34.58,0,0,0-6.69,2.49,26.62,26.62,0,0,0-8.08,6.32,20.52,20.52,0,0,0-4.24,12c-.24,5.18,3,10.87,4.94,13.12a4,4,0,0,0,.71.59l0,.07c-.49,1.35-3.16,8.27-1,13.5,3.15,7.71,7.23,8.85,11.59,10.89a34.16,34.16,0,0,0,6.21,2c.14,2.86.22,4.55.22,4.55a45.82,45.82,0,0,0-7.84,1.87c-4.35,1.62-9.47,4.8-12.64,6.2a29.44,29.44,0,0,1-7.72,2.22s-4,.21-4.79.15v2.78h73.67v-2.78c-.8.06-4.8-.15-4.8-.15a29.6,29.6,0,0,1-7.73-2.22c-3.15-1.4-8.28-4.58-12.63-6.2a45.82,45.82,0,0,0-7.84-1.87s.06-1.09.17-3"/><path class="cls-7" d="M107.64,229.83a7.17,7.17,0,0,1,2.25,5.38,7,7,0,0,1-2.25,5.39,6.51,6.51,0,0,1-7.86,0,7,7,0,0,1-2.25-5.39,7.17,7.17,0,0,1,2.25-5.38,6.51,6.51,0,0,1,7.86,0Zm-7,1.38a6.43,6.43,0,0,0,0,8,4.55,4.55,0,0,0,6.22,0,6.43,6.43,0,0,0,0-8,4.55,4.55,0,0,0-6.22,0Z"/><path class="cls-7" d="M111.73,232.3h1.48v1.44h0a2.94,2.94,0,0,1,2.09-1.7h.82v1.54a4.21,4.21,0,0,0-1.4.21c-1,.48-1.54,1.34-1.54,2.93v4.8h-1.48Z"/><path class="cls-7" d="M125.05,228.72v12.81h-1.28v-1.07a5.65,5.65,0,0,1-1.26,1.11,3.08,3.08,0,0,1-1.58.35,4.45,4.45,0,0,1-1.84-.37,4.73,4.73,0,0,1-2.23-4,5.7,5.7,0,0,1,1.17-4.34,3.57,3.57,0,0,1,2.71-1.19,3.87,3.87,0,0,1,2,.56,2,2,0,0,1,.8.82h0v-4.7Zm-3.86,11.81a2.21,2.21,0,0,0,1.77-1,5.25,5.25,0,0,0-.08-5.11,2.32,2.32,0,0,0-1.83-.87,2.2,2.2,0,0,0-1.93.89,5.18,5.18,0,0,0,.14,5.25A2.18,2.18,0,0,0,121.19,240.53Z"/><path class="cls-7" d="M127.33,232.3h1.48v1.44h0a3,3,0,0,1,2.09-1.7h.83v1.54a4.27,4.27,0,0,0-1.41.21c-1,.48-1.54,1.34-1.54,2.93v4.8h-1.48Z"/><path class="cls-7" d="M134.25,237.5a2.81,2.81,0,0,0,.51,2,2.5,2.5,0,0,0,4.53-.79h1.49a3.67,3.67,0,0,1-.83,1.84,3.83,3.83,0,0,1-3.1,1.37,4.15,4.15,0,0,1-3.25-1.47,5.87,5.87,0,0,1-.93-3.48,5.61,5.61,0,0,1,1.14-3.55A4,4,0,0,1,137.2,232a3.94,3.94,0,0,1,2.74,1.31c1,1.35,1,2.44,1,4.15Zm5.13-1.3a3.69,3.69,0,0,0-.67-2.14,2,2,0,0,0-1.6-.81,2.19,2.19,0,0,0-2,.81,4,4,0,0,0-.79,2.14Z"/><path class="cls-7" d="M149.31,232.3v1.16h0a2.92,2.92,0,0,1,1-1,3,3,0,0,1,1.83-.42,4.81,4.81,0,0,1,1.51.24,2.55,2.55,0,0,1,1.45,2.07v7.17h-1.47v-6.41a1.68,1.68,0,0,0-1.84-1.74c-1.23,0-2.57.77-2.53,3.25v4.9h-1.47V232.3Z"/><path class="cls-7" d="M164.72,240.11a.69.69,0,0,0,.7.55.63.63,0,0,0,.33-.06v1.16a3.44,3.44,0,0,1-1.14.16,1.58,1.58,0,0,1-1.37-1.34,5,5,0,0,1-2.93,1.34c-2.05,0-3.33-1.07-3.21-2.88a2.46,2.46,0,0,1,1.93-2.4,24,24,0,0,1,3.41-.55c.19,0,.73-.21.73-.7V234.3c-.12-.65-1.4-1-2.38-1a1.66,1.66,0,0,0-1.88,1.71h-1.39l.06-.81a2.78,2.78,0,0,1,1.52-1.81,4.2,4.2,0,0,1,1.9-.4,6,6,0,0,1,1.58.16c1.16.26,2.1.86,2.14,1.77ZM163.19,237c-1.19.48-2.84.44-3.7.83a1.55,1.55,0,0,0-.88,1.25,1.49,1.49,0,0,0,1.62,1.58,3,3,0,0,0,3-1.81Z"/><path class="cls-7" d="M169.13,232.3h1.45v1.35h-1.45V240c0,.58.63.62,1.45.47v1.3a5.47,5.47,0,0,1-1.6.11,1.43,1.43,0,0,1-1.33-1.3v-7h-1.28V232.3h1.28v-2.49h1.48Z"/><path class="cls-7" d="M173.64,230.54h-1.48v-1.82h1.48Zm0,11h-1.48V232.3h1.48Z"/><path class="cls-7" d="M179.69,241.92c-1.68,0-4.16-.84-4.16-4.95S178,232,179.69,232s4.16.82,4.16,4.93S181.38,241.92,179.69,241.92Zm0-8.41c-1.93,0-2.65,2-2.65,3.46s.72,3.48,2.65,3.48,2.65-2,2.65-3.48S181.64,233.51,179.69,233.51Z"/><path class="cls-7" d="M187.36,232.3v1.16h0a2.92,2.92,0,0,1,1-1,3,3,0,0,1,1.83-.42,4.76,4.76,0,0,1,1.51.24,2.56,2.56,0,0,1,1.46,2.07v7.17h-1.48v-6.41a1.67,1.67,0,0,0-1.84-1.74c-1.23,0-2.56.77-2.53,3.25v4.9h-1.47V232.3Z"/><path class="cls-7" d="M202.77,240.11a.69.69,0,0,0,.7.55.68.68,0,0,0,.34-.06v1.16a3.44,3.44,0,0,1-1.14.16,1.56,1.56,0,0,1-1.37-1.34,5,5,0,0,1-2.93,1.34c-2.06,0-3.34-1.07-3.22-2.88a2.46,2.46,0,0,1,1.94-2.4,23.71,23.71,0,0,1,3.4-.55c.19,0,.74-.21.74-.7V234.3c-.13-.65-1.41-1-2.39-1a1.67,1.67,0,0,0-1.88,1.71h-1.39l.06-.81a2.78,2.78,0,0,1,1.52-1.81,4.2,4.2,0,0,1,1.9-.4,6,6,0,0,1,1.58.16c1.16.26,2.11.86,2.14,1.77ZM201.24,237c-1.19.48-2.84.44-3.7.83a1.55,1.55,0,0,0-.88,1.25,1.49,1.49,0,0,0,1.62,1.58,3,3,0,0,0,3-1.81Z"/><path class="cls-7" d="M205.37,228.72h1.47v12.8h-1.47Z"/><path class="cls-7" d="M94.34,248.22V261H93.06V260a5.28,5.28,0,0,1-1.27,1.11,3.08,3.08,0,0,1-1.58.35,4.48,4.48,0,0,1-1.84-.37,4.73,4.73,0,0,1-2.23-4,5.66,5.66,0,0,1,1.18-4.34,3.56,3.56,0,0,1,2.7-1.19,3.84,3.84,0,0,1,2,.56,2.08,2.08,0,0,1,.81.83h0v-4.71ZM90.48,260a2.21,2.21,0,0,0,1.77-1,5.24,5.24,0,0,0-.09-5.1,2.31,2.31,0,0,0-1.82-.88,2.22,2.22,0,0,0-1.94.89,5.16,5.16,0,0,0,.15,5.25A2.15,2.15,0,0,0,90.48,260Z"/><path class="cls-7" d="M97.69,257a2.81,2.81,0,0,0,.51,2,2.5,2.5,0,0,0,4.53-.79h1.49a3.67,3.67,0,0,1-.83,1.84,3.83,3.83,0,0,1-3.1,1.37A4.11,4.11,0,0,1,97,260a5.85,5.85,0,0,1-.93-3.48,5.56,5.56,0,0,1,1.14-3.54,4.12,4.12,0,0,1,6.13-.07c1,1.35,1,2.43,1,4.14Zm5.12-1.3a3.62,3.62,0,0,0-.66-2.14,2,2,0,0,0-1.6-.81,2.19,2.19,0,0,0-2,.81,4,4,0,0,0-.79,2.14Z"/><path class="cls-7" d="M107.15,258.3a1.92,1.92,0,0,0,1.6,1.79,5.16,5.16,0,0,0,1.3.1,3.87,3.87,0,0,0,1.15-.42,1.45,1.45,0,0,0,.58-1.12,1.23,1.23,0,0,0-1-1.18,22.69,22.69,0,0,1-3.42-.93,2.12,2.12,0,0,1-1.35-2.25c0-1.75,1.58-2.75,3.39-2.75,3,0,3.4,1.81,3.42,2.84h-1.44c0-.47,0-1.47-2.11-1.47a2,2,0,0,0-1.79,1,.94.94,0,0,0,.44,1.27,10.07,10.07,0,0,0,2.16.68,5.65,5.65,0,0,1,2.12.7,2.22,2.22,0,0,1,1,2.28,2.85,2.85,0,0,1-1.65,2.21,5.17,5.17,0,0,1-1.69.39,8.35,8.35,0,0,1-1.77-.12,2.8,2.8,0,0,1-2.34-3Z"/><path class="cls-7" d="M119.77,264.86V251.8h1.28V253h0a3.57,3.57,0,0,1,1.22-1.07,3.13,3.13,0,0,1,1.58-.35,4.31,4.31,0,0,1,1.85.38,4.74,4.74,0,0,1,2.23,4,5.72,5.72,0,0,1-1.18,4.32,3.61,3.61,0,0,1-2.7,1.19,3.84,3.84,0,0,1-2-.56,2,2,0,0,1-.81-.83h0v4.83Zm3.86-11.93a2.24,2.24,0,0,0-1.77,1A5.19,5.19,0,0,0,122,259a2.39,2.39,0,0,0,1.82.88,2.22,2.22,0,0,0,1.93-.89,5.18,5.18,0,0,0-.14-5.25A2.13,2.13,0,0,0,123.63,252.93Z"/><path class="cls-7" d="M129.81,248.22h1.47v4.69a4.2,4.2,0,0,1,1.58-1.12,3.32,3.32,0,0,1,1.25-.25,3.86,3.86,0,0,1,1.49.31,2.33,2.33,0,0,1,1.51,2.16v7h-1.47v-6.29c.07-1.17-.49-1.49-.78-1.61a2.66,2.66,0,0,0-1.56-.25,3.45,3.45,0,0,0-1.45.79,1.57,1.57,0,0,0-.57,1.37v6h-1.47Z"/><path class="cls-7" d="M146.69,259.61a.77.77,0,0,0,1,.49v1.16a3.44,3.44,0,0,1-1.14.16,1.56,1.56,0,0,1-1.37-1.33,5.09,5.09,0,0,1-2.93,1.33c-2.06,0-3.34-1.07-3.21-2.88a2.44,2.44,0,0,1,1.93-2.4,25.25,25.25,0,0,1,3.4-.55c.19,0,.74-.21.74-.7V253.8c-.12-.65-1.41-.94-2.39-.94a1.66,1.66,0,0,0-1.88,1.7H139.5l.05-.81a2.77,2.77,0,0,1,1.53-1.81,4.12,4.12,0,0,1,1.89-.4,6.46,6.46,0,0,1,1.58.16c1.16.26,2.11.86,2.14,1.77Zm-1.52-3.1c-1.2.47-2.85.44-3.71.82a1.52,1.52,0,0,0-.87,1.25,1.47,1.47,0,0,0,1.61,1.58,3,3,0,0,0,3-1.81Z"/><path class="cls-7" d="M149.31,251.8h1.47v1.44h0a2.93,2.93,0,0,1,2.09-1.7h.82v1.54a4.21,4.21,0,0,0-1.4.21c-1,.48-1.55,1.34-1.55,2.94V261h-1.47Z"/><path class="cls-7" d="M155.19,251.8h1.47V253h0a2.8,2.8,0,0,1,.93-1.07,3.69,3.69,0,0,1,1.74-.37,2.31,2.31,0,0,1,1.52.35,3.08,3.08,0,0,1,1,1,3.18,3.18,0,0,1,1.25-1.14,3.48,3.48,0,0,1,1.35-.25,3.37,3.37,0,0,1,1.7.28,2.46,2.46,0,0,1,1.18,2V261h-1.48v-6.58a1.6,1.6,0,0,0-1.77-1.57,2,2,0,0,0-2.09,1.9V261h-1.48V254.4a1.56,1.56,0,0,0-1.7-1.53,2.24,2.24,0,0,0-2.16,2.21V261h-1.47Z"/><path class="cls-7" d="M176.92,259.61a.68.68,0,0,0,.7.55.65.65,0,0,0,.33-.06v1.16a3.44,3.44,0,0,1-1.14.16,1.58,1.58,0,0,1-1.37-1.33,5.06,5.06,0,0,1-2.93,1.33c-2,0-3.33-1.07-3.21-2.88a2.45,2.45,0,0,1,1.93-2.4,25.58,25.58,0,0,1,3.41-.55c.19,0,.73-.21.73-.7V253.8c-.12-.65-1.4-.94-2.38-.94a1.66,1.66,0,0,0-1.88,1.7h-1.39l.05-.81a2.83,2.83,0,0,1,1.53-1.81,4.14,4.14,0,0,1,1.9-.4,6.46,6.46,0,0,1,1.58.16c1.15.26,2.1.86,2.14,1.77Zm-1.53-3.1c-1.19.47-2.84.44-3.7.82a1.53,1.53,0,0,0-.88,1.25,1.48,1.48,0,0,0,1.61,1.58,3,3,0,0,0,3-1.81Z"/><path class="cls-7" d="M186.69,257.84a4.09,4.09,0,0,1-.49,1.86,3.81,3.81,0,0,1-3.47,1.72,3.71,3.71,0,0,1-3.23-1.95,7,7,0,0,1-.64-3.12,5.56,5.56,0,0,1,1.32-3.56,3.78,3.78,0,0,1,2.78-1.25,3.92,3.92,0,0,1,2.59.82,3.32,3.32,0,0,1,1.14,2.55h-1.45c-.16-1-.37-1.42-1-1.72a2.53,2.53,0,0,0-1.26-.3,2.56,2.56,0,0,0-1.81,1,4.19,4.19,0,0,0-.72,2.28,5.06,5.06,0,0,0,.34,2.47,2.36,2.36,0,0,0,2.28,1.42,2.06,2.06,0,0,0,1.75-1,3.62,3.62,0,0,0,.44-1.19Z"/><path class="cls-7" d="M189.73,250.05h-1.47v-1.83h1.47Zm0,11h-1.47V251.8h1.47Z"/><path class="cls-7" d="M193.28,257a2.79,2.79,0,0,0,.5,2,2.5,2.5,0,0,0,4.53-.79h1.5a3.8,3.8,0,0,1-3.94,3.21,4.1,4.1,0,0,1-3.24-1.47,5.78,5.78,0,0,1-.93-3.48,5.45,5.45,0,0,1,1.14-3.54,4,4,0,0,1,3.39-1.39,3.92,3.92,0,0,1,2.73,1.32c1,1.35,1,2.43,1,4.14Zm5.12-1.3a3.69,3.69,0,0,0-.67-2.14,2,2,0,0,0-1.59-.81,2.19,2.19,0,0,0-2,.81,3.9,3.9,0,0,0-.79,2.14Z"/><path class="cls-7" d="M203.46,251.8V253h0a2.93,2.93,0,0,1,1-1,3,3,0,0,1,1.82-.42,4.63,4.63,0,0,1,1.51.25,2.51,2.51,0,0,1,1.46,2.07V261h-1.47v-6.41a1.69,1.69,0,0,0-1.85-1.74c-1.23,0-2.56.77-2.52,3.25V261H202V251.8Z"/><path class="cls-7" d="M212.49,258.3a1.94,1.94,0,0,0,1.6,1.79,5.2,5.2,0,0,0,1.3.1,3.94,3.94,0,0,0,1.16-.42,1.45,1.45,0,0,0,.58-1.12,1.23,1.23,0,0,0-1-1.18,22.69,22.69,0,0,1-3.42-.93,2.13,2.13,0,0,1-1.36-2.25c0-1.75,1.58-2.75,3.39-2.75,3,0,3.41,1.81,3.42,2.84h-1.44c0-.47-.05-1.47-2.1-1.47a2,2,0,0,0-1.79,1,.94.94,0,0,0,.44,1.27,9.89,9.89,0,0,0,2.16.68,5.76,5.76,0,0,1,2.12.7,2.22,2.22,0,0,1,1,2.28A2.81,2.81,0,0,1,216.9,261a5.05,5.05,0,0,1-1.68.39,8.45,8.45,0,0,1-1.78-.12,2.79,2.79,0,0,1-2.33-3Z"/></svg>